# xmcd
#
# Track frame offsets:
#	150
#	13007
#	23363
#	37887
#	47827
#	67325
#	84809
#	96501
#	111001
#	123117
#	136606
#	150115
#	164103
#	171909
#	186033
#	198153
#	215350
#	232528
#	254109
#	269686
#	284066
#	307925
#
# Disc length: 4485 seconds
#
# Revision: 0
# Processed by: cddbd v1.5.1PL0 Copyright (c) Steve Scherf et al.
# Submitted via: EasyCDDAExtractor 4.6.9.1
#
DISCID=26118316
DTITLE=Major Dundee - Silver
DYEAR=2002
DGENRE=Country
TTITLE0=Long Fin Cadillac
TTITLE1=Everybody's Talking
TTITLE2=Old Man Moon
TTITLE3=You're Forgettin Me
TTITLE4=Lean On The Wind
TTITLE5=Louisiana Man
TTITLE6=Lisa
TTITLE7=Hot
TTITLE8=Mexican Joe
TTITLE9=Juliet
TTITLE10=Rock and Roll Cowboy
TTITLE11=Cowboy Country
TTITLE12=Goin" Loco
TTITLE13=I Saw Elvis
TTITLE14=Raised On Love ( With Toni Wille)
TTITLE15=It Turned Out To Be You ( With Toni Wille)
TTITLE16=Li'l Voices
TTITLE17=El Paso
TTITLE18=Leaving Home
TTITLE19=Ready To Rock and Roll
TTITLE20=All Arround My Hat
TTITLE21=The Song
EXTD=
EXTT0=
EXTT1=
EXTT2=
EXTT3=
EXTT4=
EXTT5=
EXTT6=
EXTT7=
EXTT8=
EXTT9=
EXTT10=
EXTT11=
EXTT12=
EXTT13=
EXTT14=
EXTT15=
EXTT16=
EXTT17=
EXTT18=
EXTT19=
EXTT20=
EXTT21=
PLAYORDER=
